<svg width="16" height="17" viewBox="0 0 16 17" fill="none" xmlns="http://www.w3.org/2000/svg">
<path d="M8.0013 6.5C7.47087 6.5 6.96216 6.71071 6.58709 7.08579C6.21201 7.46086 6.0013 7.96957 6.0013 8.5C6.0013 9.03043 6.21201 9.53914 6.58709 9.91421C6.96216 10.2893 7.47087 10.5 8.0013 10.5C8.53173 10.5 9.04044 10.2893 9.41551 9.91421C9.79059 9.53914 10.0013 9.03043 10.0013 8.5C10.0013 7.96957 9.79059 7.46086 9.41551 7.08579C9.04044 6.71071 8.53173 6.5 8.0013 6.5ZM8.0013 11.8333C7.11725 11.8333 6.2694 11.4821 5.64428 10.857C5.01916 10.2319 4.66797 9.38406 4.66797 8.5C4.66797 7.61595 5.01916 6.7681 5.64428 6.14298C6.2694 5.51786 7.11725 5.16667 8.0013 5.16667C8.88536 5.16667 9.7332 5.51786 10.3583 6.14298C10.9834 6.7681 11.3346 7.61595 11.3346 8.5C11.3346 9.38406 10.9834 10.2319 10.3583 10.857C9.7332 11.4821 8.88536 11.8333 8.0013 11.8333ZM8.0013 3.5C4.66797 3.5 1.8213 5.57333 0.667969 8.5C1.8213 11.4267 4.66797 13.5 8.0013 13.5C11.3346 13.5 14.1813 11.4267 15.3346 8.5C14.1813 5.57333 11.3346 3.5 8.0013 3.5Z" fill="#D9D9D9"/>
</svg>
