<svg width="32" height="32" viewBox="0 0 32 32" fill="none" xmlns="http://www.w3.org/2000/svg">
<g filter="url(#filter0_dii_425_3716)">
<rect x="4" y="2" width="24" height="24" rx="12" fill="white"/>
<path d="M16.0002 18.6673C18.5775 18.6673 20.6668 16.578 20.6668 14.0007C20.6668 11.4233 18.5775 9.33398 16.0002 9.33398C13.4228 9.33398 11.3335 11.4233 11.3335 14.0007C11.3335 16.578 13.4228 18.6673 16.0002 18.6673Z" fill="#969AA1"/>
<path d="M15.9998 21.306C15.6332 21.306 15.3332 21.0327 15.3332 20.666V20.6127C15.3332 20.246 15.6332 19.946 15.9998 19.946C16.3665 19.946 16.6665 20.246 16.6665 20.6127C16.6665 20.9793 16.3665 21.306 15.9998 21.306ZM20.7598 19.426C20.5865 19.426 20.4198 19.3593 20.2865 19.2327L20.1998 19.146C19.9398 18.886 19.9398 18.466 20.1998 18.206C20.4598 17.946 20.8798 17.946 21.1398 18.206L21.2265 18.2927C21.4865 18.5527 21.4865 18.9727 21.2265 19.2327C21.0998 19.3593 20.9332 19.426 20.7598 19.426ZM11.2398 19.426C11.0665 19.426 10.8998 19.3593 10.7665 19.2327C10.5065 18.9727 10.5065 18.5527 10.7665 18.2927L10.8532 18.206C11.1132 17.946 11.5332 17.946 11.7932 18.206C12.0532 18.466 12.0532 18.886 11.7932 19.146L11.7065 19.2327C11.5798 19.3593 11.4065 19.426 11.2398 19.426ZM22.6665 14.666H22.6132C22.2465 14.666 21.9465 14.366 21.9465 13.9993C21.9465 13.6327 22.2465 13.3327 22.6132 13.3327C22.9798 13.3327 23.3065 13.6327 23.3065 13.9993C23.3065 14.366 23.0332 14.666 22.6665 14.666ZM9.3865 14.666H9.33317C8.9665 14.666 8.6665 14.366 8.6665 13.9993C8.6665 13.6327 8.9665 13.3327 9.33317 13.3327C9.69984 13.3327 10.0265 13.6327 10.0265 13.9993C10.0265 14.366 9.75317 14.666 9.3865 14.666ZM20.6732 9.99268C20.4998 9.99268 20.3332 9.92602 20.1998 9.79935C19.9398 9.53935 19.9398 9.11935 20.1998 8.85935L20.2865 8.77268C20.5465 8.51268 20.9665 8.51268 21.2265 8.77268C21.4865 9.03268 21.4865 9.45268 21.2265 9.71268L21.1398 9.79935C21.0132 9.92602 20.8465 9.99268 20.6732 9.99268ZM11.3265 9.99268C11.1532 9.99268 10.9865 9.92602 10.8532 9.79935L10.7665 9.70602C10.5065 9.44602 10.5065 9.02602 10.7665 8.76602C11.0265 8.50602 11.4465 8.50602 11.7065 8.76602L11.7932 8.85268C12.0532 9.11268 12.0532 9.53268 11.7932 9.79268C11.6665 9.92602 11.4932 9.99268 11.3265 9.99268ZM15.9998 8.02602C15.6332 8.02602 15.3332 7.75268 15.3332 7.38602V7.33268C15.3332 6.96602 15.6332 6.66602 15.9998 6.66602C16.3665 6.66602 16.6665 6.96602 16.6665 7.33268C16.6665 7.69935 16.3665 8.02602 15.9998 8.02602Z" fill="#969AA1"/>
</g>
<defs>
<filter id="filter0_dii_425_3716" x="0" y="0" width="32" height="32" filterUnits="userSpaceOnUse" color-interpolation-filters="sRGB">
<feFlood flood-opacity="0" result="BackgroundImageFix"/>
<feColorMatrix in="SourceAlpha" type="matrix" values="0 0 0 0 0 0 0 0 0 0 0 0 0 0 0 0 0 0 127 0" result="hardAlpha"/>
<feOffset dy="2"/>
<feGaussianBlur stdDeviation="2"/>
<feComposite in2="hardAlpha" operator="out"/>
<feColorMatrix type="matrix" values="0 0 0 0 0 0 0 0 0 0 0 0 0 0 0 0 0 0 0.2 0"/>
<feBlend mode="multiply" in2="BackgroundImageFix" result="effect1_dropShadow_425_3716"/>
<feBlend mode="normal" in="SourceGraphic" in2="effect1_dropShadow_425_3716" result="shape"/>
<feColorMatrix in="SourceAlpha" type="matrix" values="0 0 0 0 0 0 0 0 0 0 0 0 0 0 0 0 0 0 127 0" result="hardAlpha"/>
<feOffset dy="-1"/>
<feGaussianBlur stdDeviation="0.5"/>
<feComposite in2="hardAlpha" operator="arithmetic" k2="-1" k3="1"/>
<feColorMatrix type="matrix" values="0 0 0 0 0 0 0 0 0 0 0 0 0 0 0 0 0 0 0.1 0"/>
<feBlend mode="multiply" in2="shape" result="effect2_innerShadow_425_3716"/>
<feColorMatrix in="SourceAlpha" type="matrix" values="0 0 0 0 0 0 0 0 0 0 0 0 0 0 0 0 0 0 127 0" result="hardAlpha"/>
<feOffset dy="2"/>
<feGaussianBlur stdDeviation="1"/>
<feComposite in2="hardAlpha" operator="arithmetic" k2="-1" k3="1"/>
<feColorMatrix type="matrix" values="0 0 0 0 1 0 0 0 0 1 0 0 0 0 1 0 0 0 1 0"/>
<feBlend mode="normal" in2="effect2_innerShadow_425_3716" result="effect3_innerShadow_425_3716"/>
</filter>
</defs>
</svg>
