<svg width="36" height="36" viewBox="0 0 36 36" fill="none" xmlns="http://www.w3.org/2000/svg">
<path d="M18 2.25C14.885 2.25 11.8398 3.17372 9.24978 4.90435C6.6597 6.63499 4.64098 9.0948 3.4489 11.9727C2.25682 14.8507 1.94492 18.0175 2.55264 21.0727C3.16036 24.1279 4.6604 26.9343 6.86307 29.1369C9.06575 31.3396 11.8721 32.8397 14.9273 33.4474C17.9825 34.0551 21.1493 33.7432 24.0273 32.5511C26.9052 31.359 29.365 29.3403 31.0957 26.7502C32.8263 24.1602 33.75 21.1151 33.75 18C33.7452 13.8243 32.0843 9.821 29.1317 6.86833C26.179 3.91566 22.1757 2.25476 18 2.25ZM18 31.5C14.4196 31.5 10.9858 30.0777 8.45407 27.5459C5.92232 25.0142 4.50001 21.5804 4.50001 18C4.50001 14.4196 5.92232 10.9858 8.45407 8.45406C10.9858 5.92232 14.4196 4.5 18 4.5V18L27.5411 27.5411C26.29 28.797 24.803 29.7933 23.1656 30.4727C21.5282 31.1521 19.7727 31.5012 18 31.5Z" fill="#34A853"/>
</svg>
