<svg width="18" height="18" viewBox="0 0 18 18" fill="none" xmlns="http://www.w3.org/2000/svg">
<path d="M12.7125 0.505859H9.53433C8.80308 0.505859 8.18433 1.12461 8.18433 1.85586V3.79648C8.18433 4.13398 8.46558 4.41523 8.80308 4.41523C9.14058 4.41523 9.44995 4.13398 9.44995 3.79648V1.82773C9.44995 1.77148 9.47808 1.74336 9.53433 1.74336H12.7125C13.3875 1.74336 13.9218 2.27773 13.9218 2.95273V15.0184C13.9218 15.6934 13.3875 16.2277 12.7125 16.2277H9.53433C9.47808 16.2277 9.44995 16.1996 9.44995 16.1434V14.2027C9.44995 13.8652 9.1687 13.584 8.80308 13.584C8.43745 13.584 8.18433 13.8652 8.18433 14.2027V16.1434C8.18433 16.8746 8.80308 17.4934 9.53433 17.4934H12.7125C14.0906 17.4934 15.1875 16.3684 15.1875 15.0184V2.98086C15.1875 1.60273 14.0625 0.505859 12.7125 0.505859Z" fill="#333333"/>
<path d="M10.4343 8.54883L7.62183 5.68008C7.3687 5.42695 6.97495 5.42695 6.72183 5.68008C6.4687 5.9332 6.4687 6.32695 6.72183 6.58008L8.46558 8.35195H3.45933C3.12183 8.35195 2.84058 8.6332 2.84058 8.9707C2.84058 9.3082 3.12183 9.58945 3.45933 9.58945H8.4937L6.72183 11.3895C6.4687 11.6426 6.4687 12.0363 6.72183 12.2895C6.83433 12.402 7.00308 12.4582 7.17183 12.4582C7.34058 12.4582 7.50933 12.402 7.62183 12.2613L10.4343 9.39258C10.6875 9.1957 10.6875 8.80195 10.4343 8.54883Z" fill="#333333"/>
</svg>
