<svg width="36" height="36" viewBox="0 0 36 36" fill="none" xmlns="http://www.w3.org/2000/svg">
<g clip-path="url(#clip0_237_900)">
<path d="M26.209 10.459L27.791 12.041L14.625 25.207L8.20898 18.791L9.79102 17.209L14.625 22.043L26.209 10.459ZM18 0C19.6523 0 21.2461 0.210938 22.7812 0.632812C24.3164 1.05469 25.752 1.6582 27.0879 2.44336C28.4238 3.22852 29.6367 4.16602 30.7266 5.25586C31.8164 6.3457 32.7539 7.56445 33.5391 8.91211C34.3242 10.2598 34.9277 11.6953 35.3496 13.2188C35.7715 14.7422 35.9883 16.3359 36 18C36 19.6523 35.7891 21.2461 35.3672 22.7812C34.9453 24.3164 34.3418 25.752 33.5566 27.0879C32.7715 28.4238 31.834 29.6367 30.7441 30.7266C29.6543 31.8164 28.4355 32.7539 27.0879 33.5391C25.7402 34.3242 24.3047 34.9277 22.7812 35.3496C21.2578 35.7715 19.6641 35.9883 18 36C16.3477 36 14.7539 35.7891 13.2188 35.3672C11.6836 34.9453 10.248 34.3418 8.91211 33.5566C7.57617 32.7715 6.36328 31.834 5.27344 30.7441C4.18359 29.6543 3.24609 28.4355 2.46094 27.0879C1.67578 25.7402 1.07227 24.3105 0.650391 22.7988C0.228516 21.2871 0.0117188 19.6875 0 18C0 16.3477 0.210938 14.7539 0.632812 13.2188C1.05469 11.6836 1.6582 10.248 2.44336 8.91211C3.22852 7.57617 4.16602 6.36328 5.25586 5.27344C6.3457 4.18359 7.56445 3.24609 8.91211 2.46094C10.2598 1.67578 11.6895 1.07227 13.2012 0.650391C14.7129 0.228516 16.3125 0.0117188 18 0ZM18 33.75C19.4414 33.75 20.8301 33.5625 22.166 33.1875C23.502 32.8125 24.7559 32.2852 25.9277 31.6055C27.0996 30.9258 28.166 30.0996 29.127 29.127C30.0879 28.1543 30.9082 27.0938 31.5879 25.9453C32.2676 24.7969 32.8008 23.543 33.1875 22.1836C33.5742 20.8242 33.7617 19.4297 33.75 18C33.75 16.5586 33.5625 15.1699 33.1875 13.834C32.8125 12.498 32.2852 11.2441 31.6055 10.0723C30.9258 8.90039 30.0996 7.83398 29.127 6.87305C28.1543 5.91211 27.0938 5.0918 25.9453 4.41211C24.7969 3.73242 23.543 3.19922 22.1836 2.8125C20.8242 2.42578 19.4297 2.23828 18 2.25C16.5586 2.25 15.1699 2.4375 13.834 2.8125C12.498 3.1875 11.2441 3.71484 10.0723 4.39453C8.90039 5.07422 7.83398 5.90039 6.87305 6.87305C5.91211 7.8457 5.0918 8.90625 4.41211 10.0547C3.73242 11.2031 3.19922 12.457 2.8125 13.8164C2.42578 15.1758 2.23828 16.5703 2.25 18C2.25 19.4414 2.4375 20.8301 2.8125 22.166C3.1875 23.502 3.71484 24.7559 4.39453 25.9277C5.07422 27.0996 5.90039 28.166 6.87305 29.127C7.8457 30.0879 8.90625 30.9082 10.0547 31.5879C11.2031 32.2676 12.457 32.8008 13.8164 33.1875C15.1758 33.5742 16.5703 33.7617 18 33.75Z" fill="#F0950C"/>
</g>
<defs>
<clipPath id="clip0_237_900">
<rect width="36" height="36" fill="white"/>
</clipPath>
</defs>
</svg>
