<svg width="19" height="18" viewBox="0 0 19 18" fill="none" xmlns="http://www.w3.org/2000/svg">
<path d="M6.60322 0.957031H3.03135C2.0751 0.957031 1.2876 1.74453 1.2876 2.70078V6.27266C1.2876 7.22891 2.0751 8.01641 3.03135 8.01641H6.60322C7.55947 8.01641 8.34697 7.22891 8.34697 6.27266V2.72891C8.3751 1.74453 7.5876 0.957031 6.60322 0.957031ZM7.10947 6.30078C7.10947 6.58203 6.88447 6.80703 6.60322 6.80703H3.03135C2.7501 6.80703 2.5251 6.58203 2.5251 6.30078V2.72891C2.5251 2.44766 2.7501 2.22266 3.03135 2.22266H6.60322C6.88447 2.22266 7.10947 2.44766 7.10947 2.72891V6.30078Z" fill="#3E8DA7"/>
<path d="M15.9689 0.957031H12.3971C11.4408 0.957031 10.6533 1.74453 10.6533 2.70078V6.27266C10.6533 7.22891 11.4408 8.01641 12.3971 8.01641H15.9689C16.9252 8.01641 17.7127 7.22891 17.7127 6.27266V2.72891C17.7127 1.74453 16.9252 0.957031 15.9689 0.957031ZM16.4752 6.30078C16.4752 6.58203 16.2502 6.80703 15.9689 6.80703H12.3971C12.1158 6.80703 11.8908 6.58203 11.8908 6.30078V2.72891C11.8908 2.44766 12.1158 2.22266 12.3971 2.22266H15.9689C16.2502 2.22266 16.4752 2.44766 16.4752 2.72891V6.30078Z" fill="#3E8DA7"/>
<path d="M6.60322 9.92969H3.03135C2.0751 9.92969 1.2876 10.7172 1.2876 11.6734V15.2453C1.2876 16.2016 2.0751 16.9891 3.03135 16.9891H6.60322C7.55947 16.9891 8.34697 16.2016 8.34697 15.2453V11.7016C8.3751 10.7172 7.5876 9.92969 6.60322 9.92969ZM7.10947 15.2734C7.10947 15.5547 6.88447 15.7797 6.60322 15.7797H3.03135C2.7501 15.7797 2.5251 15.5547 2.5251 15.2734V11.7016C2.5251 11.4203 2.7501 11.1953 3.03135 11.1953H6.60322C6.88447 11.1953 7.10947 11.4203 7.10947 11.7016V15.2734Z" fill="#3E8DA7"/>
<path d="M15.9689 9.92969H12.3971C11.4408 9.92969 10.6533 10.7172 10.6533 11.6734V15.2453C10.6533 16.2016 11.4408 16.9891 12.3971 16.9891H15.9689C16.9252 16.9891 17.7127 16.2016 17.7127 15.2453V11.7016C17.7127 10.7172 16.9252 9.92969 15.9689 9.92969ZM16.4752 15.2734C16.4752 15.5547 16.2502 15.7797 15.9689 15.7797H12.3971C12.1158 15.7797 11.8908 15.5547 11.8908 15.2734V11.7016C11.8908 11.4203 12.1158 11.1953 12.3971 11.1953H15.9689C16.2502 11.1953 16.4752 11.4203 16.4752 11.7016V15.2734Z" fill="#3E8DA7"/>
</svg>
