<svg width="34" height="52" viewBox="0 0 34 52" fill="none" xmlns="http://www.w3.org/2000/svg">
<path d="M33.75 26.0781C33.75 32.9849 31.8586 39.2267 28.8136 43.7346C25.7677 48.244 21.5864 50.9961 17 50.9961C12.4136 50.9961 8.23227 48.244 5.18635 43.7346C2.14142 39.2267 0.25 32.9849 0.25 26.0781C0.25 19.1713 2.14142 12.9295 5.18635 8.42162C8.23227 3.91223 12.4136 1.16016 17 1.16016C21.5864 1.16016 25.7677 3.91223 28.8136 8.42162C31.8586 12.9295 33.75 19.1713 33.75 26.0781Z" fill="#EFF4FB" stroke="#E2E8F0" stroke-width="0.5"/>
<path d="M18.9703 16.5664H15.0328C11.4328 16.5664 8.50781 20.7719 8.50781 25.935C8.50781 31.0981 10.7578 34.7207 16.2703 38.3848C16.4109 38.4681 16.5234 38.5097 16.6641 38.5097C16.8609 38.5097 17.0297 38.4265 17.1984 38.2599C17.4797 38.0101 17.6484 37.5521 17.6484 37.0524V35.262H18.9703C22.5703 35.262 25.5234 31.0565 25.5234 25.8934C25.5234 20.7302 22.5703 16.5664 18.9703 16.5664ZM18.9703 33.4715H17.3391C16.8047 33.4715 16.3547 34.1377 16.3547 34.9288V36.4695C11.6016 33.2217 9.74531 30.2237 9.74531 25.9766C9.74531 21.8545 12.1078 18.4818 15.0328 18.4818H18.9703C21.8672 18.4818 24.2578 21.8545 24.2578 25.9766C24.2578 30.0988 21.8672 33.4715 18.9703 33.4715Z" fill="#64748B"/>
<path d="M13.4281 25.0195C13.0625 25.0195 12.7812 25.4359 12.7812 25.9772C12.7812 26.5185 13.0625 26.9349 13.4281 26.9349C13.7937 26.9349 14.075 26.5185 14.075 25.9772C14.075 25.4359 13.7937 25.0195 13.4281 25.0195Z" fill="#64748B"/>
<path d="M17.0023 25.0195C16.6367 25.0195 16.3555 25.4359 16.3555 25.9772C16.3555 26.5185 16.6367 26.9349 17.0023 26.9349C17.3398 26.9349 17.6492 26.5185 17.6492 25.9772C17.6492 25.4359 17.3398 25.0195 17.0023 25.0195Z" fill="#64748B"/>
<path d="M20.5727 25.0195C20.207 25.0195 19.9258 25.4359 19.9258 25.9772C19.9258 26.5185 20.207 26.9349 20.5727 26.9349C20.9383 26.9349 21.2195 26.5185 21.2195 25.9772C21.2195 25.4359 20.9102 25.0195 20.5727 25.0195Z" fill="#64748B"/>
<path d="M32 8.3125C32 10.1841 31.4858 11.8338 30.7069 12.987C29.9239 14.1461 28.9484 14.7148 28 14.7148C27.0516 14.7148 26.0761 14.1461 25.2931 12.987C24.5142 11.8338 24 10.1841 24 8.3125C24 6.44095 24.5142 4.79124 25.2931 3.63799C26.0761 2.4789 27.0516 1.91016 28 1.91016C28.9484 1.91016 29.9239 2.4789 30.7069 3.63799C31.4858 4.79124 32 6.44095 32 8.3125Z" fill="#DC3545" stroke="white" stroke-width="2"/>
</svg>
