<svg width="18" height="18" viewBox="0 0 18 18" fill="none" xmlns="http://www.w3.org/2000/svg">
<path d="M10 14.543L12.8945 11.6494L12.275 11.0299L10.4375 12.8674V8.75487H9.5625V12.8674L7.725 11.0299L7.1055 11.6494L10 14.543ZM3.875 6.332V15.5869C3.875 15.7438 3.92546 15.8727 4.02637 15.9736C4.12729 16.0745 4.2565 16.125 4.414 16.125H15.5869C15.7438 16.125 15.8727 16.0745 15.9736 15.9736C16.0745 15.8727 16.125 15.7438 16.125 15.5869V6.332H3.875ZM4.54875 17C4.15675 17 3.80062 16.8399 3.48037 16.5196C3.16012 16.1994 3 15.8435 3 15.4521V6.05025C3 5.87992 3.02712 5.7195 3.08137 5.569C3.13562 5.4185 3.21729 5.27996 3.32638 5.15337L4.68963 3.51713C4.81621 3.34621 4.97458 3.21729 5.16475 3.13038C5.35492 3.04346 5.55879 3 5.77637 3H14.1904C14.4074 3 14.6139 3.04346 14.8099 3.13038C15.0059 3.21729 15.1672 3.34592 15.2937 3.51625L16.6736 5.1875C16.7827 5.31408 16.8644 5.45554 16.9186 5.61188C16.9729 5.76763 17 5.93096 17 6.10188V15.4513C17 15.8427 16.8399 16.1985 16.5196 16.5188C16.1994 16.839 15.8435 16.9991 15.4521 16.9991L4.54875 17ZM4.2075 5.457H15.775L14.6112 4.05875C14.5547 4.00275 14.4899 3.95813 14.417 3.92488C14.3441 3.89163 14.2683 3.875 14.1895 3.875H5.793C5.71483 3.875 5.639 3.89192 5.5655 3.92575C5.492 3.95958 5.42783 4.0045 5.373 4.0605L4.2075 5.457Z" fill="#333333"/>
</svg>
