<svg width="1277" height="319" viewBox="0 0 1277 319" fill="none" xmlns="http://www.w3.org/2000/svg">
<g filter="url(#filter0_d_463_5883)">
<path d="M10 12C10 6.47715 14.4772 2 20 2H1257C1262.52 2 1267 6.47715 1267 12V291C1267 296.523 1262.52 301 1257 301H20C14.4771 301 10 296.523 10 291V12Z" fill="white"/>
<path d="M10.5 12C10.5 6.7533 14.7533 2.5 20 2.5H1257C1262.25 2.5 1266.5 6.75329 1266.5 12V291C1266.5 296.247 1262.25 300.5 1257 300.5H20C14.7533 300.5 10.5 296.247 10.5 291V12Z" stroke="#333333" stroke-opacity="0.1"/>
</g>
<defs>
<filter id="filter0_d_463_5883" x="0" y="0" width="1277" height="319" filterUnits="userSpaceOnUse" color-interpolation-filters="sRGB">
<feFlood flood-opacity="0" result="BackgroundImageFix"/>
<feColorMatrix in="SourceAlpha" type="matrix" values="0 0 0 0 0 0 0 0 0 0 0 0 0 0 0 0 0 0 127 0" result="hardAlpha"/>
<feMorphology radius="3" operator="erode" in="SourceAlpha" result="effect1_dropShadow_463_5883"/>
<feOffset dy="8"/>
<feGaussianBlur stdDeviation="6.5"/>
<feComposite in2="hardAlpha" operator="out"/>
<feColorMatrix type="matrix" values="0 0 0 0 0 0 0 0 0 0 0 0 0 0 0 0 0 0 0.07 0"/>
<feBlend mode="normal" in2="BackgroundImageFix" result="effect1_dropShadow_463_5883"/>
<feBlend mode="normal" in="SourceGraphic" in2="effect1_dropShadow_463_5883" result="shape"/>
</filter>
</defs>
</svg>
