<svg width="1278" height="318" viewBox="0 0 1278 318" fill="none" xmlns="http://www.w3.org/2000/svg">
<g filter="url(#filter0_d_463_5929)">
<path d="M10 12C10 6.47716 14.4772 2 20 2H1258C1263.52 2 1268 6.47715 1268 12V290C1268 295.523 1263.52 300 1258 300H20C14.4771 300 10 295.523 10 290V12Z" fill="white"/>
<path d="M10.5 12C10.5 6.7533 14.7533 2.5 20 2.5H1258C1263.25 2.5 1267.5 6.7533 1267.5 12V290C1267.5 295.247 1263.25 299.5 1258 299.5H20C14.7533 299.5 10.5 295.247 10.5 290V12Z" stroke="#333333" stroke-opacity="0.1"/>
</g>
<defs>
<filter id="filter0_d_463_5929" x="0" y="0" width="1278" height="318" filterUnits="userSpaceOnUse" color-interpolation-filters="sRGB">
<feFlood flood-opacity="0" result="BackgroundImageFix"/>
<feColorMatrix in="SourceAlpha" type="matrix" values="0 0 0 0 0 0 0 0 0 0 0 0 0 0 0 0 0 0 127 0" result="hardAlpha"/>
<feMorphology radius="3" operator="erode" in="SourceAlpha" result="effect1_dropShadow_463_5929"/>
<feOffset dy="8"/>
<feGaussianBlur stdDeviation="6.5"/>
<feComposite in2="hardAlpha" operator="out"/>
<feColorMatrix type="matrix" values="0 0 0 0 0 0 0 0 0 0 0 0 0 0 0 0 0 0 0.07 0"/>
<feBlend mode="normal" in2="BackgroundImageFix" result="effect1_dropShadow_463_5929"/>
<feBlend mode="normal" in="SourceGraphic" in2="effect1_dropShadow_463_5929" result="shape"/>
</filter>
</defs>
</svg>
