<svg width="1290" height="592" viewBox="0 0 1290 592" fill="none" xmlns="http://www.w3.org/2000/svg">
<g filter="url(#filter0_d_306_1004)">
<path d="M10 12C10 6.47715 14.4772 2 20 2H1270C1275.52 2 1280 6.47715 1280 12V564C1280 569.523 1275.52 574 1270 574H20C14.4771 574 10 569.523 10 564V12Z" fill="white"/>
<path d="M10.5 12C10.5 6.7533 14.7533 2.5 20 2.5H1270C1275.25 2.5 1279.5 6.75329 1279.5 12V564C1279.5 569.247 1275.25 573.5 1270 573.5H20C14.7533 573.5 10.5 569.247 10.5 564V12Z" stroke="#333333" stroke-opacity="0.1"/>
</g>
<defs>
<filter id="filter0_d_306_1004" x="0" y="0" width="1290" height="592" filterUnits="userSpaceOnUse" color-interpolation-filters="sRGB">
<feFlood flood-opacity="0" result="BackgroundImageFix"/>
<feColorMatrix in="SourceAlpha" type="matrix" values="0 0 0 0 0 0 0 0 0 0 0 0 0 0 0 0 0 0 127 0" result="hardAlpha"/>
<feMorphology radius="3" operator="erode" in="SourceAlpha" result="effect1_dropShadow_306_1004"/>
<feOffset dy="8"/>
<feGaussianBlur stdDeviation="6.5"/>
<feComposite in2="hardAlpha" operator="out"/>
<feColorMatrix type="matrix" values="0 0 0 0 0 0 0 0 0 0 0 0 0 0 0 0 0 0 0.07 0"/>
<feBlend mode="normal" in2="BackgroundImageFix" result="effect1_dropShadow_306_1004"/>
<feBlend mode="normal" in="SourceGraphic" in2="effect1_dropShadow_306_1004" result="shape"/>
</filter>
</defs>
</svg>
