<svg width="1297" height="592" viewBox="0 0 1297 592" fill="none" xmlns="http://www.w3.org/2000/svg">
<g filter="url(#filter0_d_425_3519)">
<path d="M10 12C10 6.47715 14.4772 2 20 2H1277C1282.52 2 1287 6.47715 1287 12V564C1287 569.523 1282.52 574 1277 574H20C14.4772 574 10 569.523 10 564V12Z" fill="white"/>
<path d="M10.5 12C10.5 6.7533 14.7533 2.5 20 2.5H1277C1282.25 2.5 1286.5 6.7533 1286.5 12V564C1286.5 569.247 1282.25 573.5 1277 573.5H20C14.7533 573.5 10.5 569.247 10.5 564V12Z" stroke="#333333" stroke-opacity="0.1"/>
</g>
<defs>
<filter id="filter0_d_425_3519" x="0" y="0" width="1297" height="592" filterUnits="userSpaceOnUse" color-interpolation-filters="sRGB">
<feFlood flood-opacity="0" result="BackgroundImageFix"/>
<feColorMatrix in="SourceAlpha" type="matrix" values="0 0 0 0 0 0 0 0 0 0 0 0 0 0 0 0 0 0 127 0" result="hardAlpha"/>
<feMorphology radius="3" operator="erode" in="SourceAlpha" result="effect1_dropShadow_425_3519"/>
<feOffset dy="8"/>
<feGaussianBlur stdDeviation="6.5"/>
<feComposite in2="hardAlpha" operator="out"/>
<feColorMatrix type="matrix" values="0 0 0 0 0 0 0 0 0 0 0 0 0 0 0 0 0 0 0.07 0"/>
<feBlend mode="normal" in2="BackgroundImageFix" result="effect1_dropShadow_425_3519"/>
<feBlend mode="normal" in="SourceGraphic" in2="effect1_dropShadow_425_3519" result="shape"/>
</filter>
</defs>
</svg>
