<svg width="20" height="21" viewBox="0 0 20 21" fill="none" xmlns="http://www.w3.org/2000/svg">
<path fill-rule="evenodd" clip-rule="evenodd" d="M9.1665 3.83268C5.94484 3.83268 3.33317 6.44435 3.33317 9.66602C3.33317 12.8877 5.94484 15.4993 9.1665 15.4993C12.3882 15.4993 14.9998 12.8877 14.9998 9.66602C14.9998 6.44435 12.3882 3.83268 9.1665 3.83268ZM1.6665 9.66602C1.6665 5.52388 5.02437 2.16602 9.1665 2.16602C13.3086 2.16602 16.6665 5.52388 16.6665 9.66602C16.6665 13.8082 13.3086 17.166 9.1665 17.166C5.02437 17.166 1.6665 13.8082 1.6665 9.66602Z" fill="#637381"/>
<path fill-rule="evenodd" clip-rule="evenodd" d="M13.2856 13.7851C13.611 13.4597 14.1387 13.4597 14.4641 13.7851L18.0891 17.4101C18.4145 17.7355 18.4145 18.2632 18.0891 18.5886C17.7637 18.914 17.236 18.914 16.9106 18.5886L13.2856 14.9636C12.9601 14.6382 12.9601 14.1105 13.2856 13.7851Z" fill="#637381"/>
</svg>
