<svg width="20" height="30" viewBox="0 0 20 30" fill="none" xmlns="http://www.w3.org/2000/svg">
<path fill-rule="evenodd" clip-rule="evenodd" d="M9.16797 5.20768C5.94631 5.20768 3.33464 9.07418 3.33464 13.8438C3.33464 18.6133 5.94631 22.4798 9.16797 22.4798C12.3896 22.4798 15.0013 18.6133 15.0013 13.8438C15.0013 9.07418 12.3896 5.20768 9.16797 5.20768ZM1.66797 13.8438C1.66797 7.71145 5.02583 2.74023 9.16797 2.74023C13.3101 2.74023 16.668 7.71145 16.668 13.8438C16.668 19.9761 13.3101 24.9473 9.16797 24.9473C5.02583 24.9473 1.66797 19.9761 1.66797 13.8438Z" fill="#637381"/>
<path fill-rule="evenodd" clip-rule="evenodd" d="M13.287 19.9434C13.6125 19.4616 14.1401 19.4616 14.4656 19.9434L18.0906 25.3101C18.416 25.7919 18.416 26.573 18.0906 27.0548C17.7651 27.5366 17.2375 27.5366 16.912 27.0548L13.287 21.6881C12.9616 21.2063 12.9616 20.4252 13.287 19.9434Z" fill="#637381"/>
</svg>
