<svg width="36" height="36" viewBox="0 0 36 36" fill="none" xmlns="http://www.w3.org/2000/svg">
<path d="M26.5263 36C23.9053 36 21.6714 35.164 19.8246 33.492C17.9779 31.82 17.0539 29.7989 17.0526 27.4286C17.0514 25.0583 17.9754 23.0371 19.8246 21.3651C21.6739 19.6931 23.9078 18.8571 26.5263 18.8571C29.1448 18.8571 31.3794 19.6931 33.2299 21.3651C35.0804 23.0371 36.0038 25.0583 36 27.4286C35.9962 29.7989 35.0722 31.8206 33.228 33.4937C31.3838 35.1669 29.1499 36.0023 26.5263 36ZM29.7 31.5L31.0263 30.3L27.4737 27.0857V22.2857H25.5789V27.7714L29.7 31.5ZM3.78947 34.2857C2.74737 34.2857 1.85558 33.9503 1.11411 33.2794C0.372632 32.6086 0.00126316 31.8011 0 30.8571V6.85714C0 5.91429 0.371368 5.10743 1.11411 4.43657C1.85684 3.76571 2.74863 3.42971 3.78947 3.42857H11.7C12.0474 2.42857 12.7263 1.60743 13.7368 0.965143C14.7474 0.322857 15.8526 0.00114286 17.0526 0C18.3158 0 19.445 0.321714 20.4404 0.965143C21.4358 1.60857 22.1065 2.42971 22.4526 3.42857H30.3158C31.3579 3.42857 32.2503 3.76457 32.993 4.43657C33.7358 5.10857 34.1065 5.91543 34.1053 6.85714V17.5714C33.5368 17.2 32.9368 16.8857 32.3053 16.6286C31.6737 16.3714 31.0105 16.1429 30.3158 15.9429V6.85714H26.5263V12H7.57895V6.85714H3.78947V30.8571H13.8316C14.0526 31.4857 14.3053 32.0857 14.5895 32.6571C14.8737 33.2286 15.221 33.7714 15.6316 34.2857H3.78947ZM17.0526 6.85714C17.5895 6.85714 18.0398 6.69257 18.4036 6.36343C18.7674 6.03429 18.9486 5.62743 18.9474 5.14286C18.9461 4.65829 18.7642 4.25143 18.4017 3.92229C18.0392 3.59314 17.5895 3.42857 17.0526 3.42857C16.5158 3.42857 16.0661 3.59314 15.7036 3.92229C15.341 4.25143 15.1592 4.65829 15.1579 5.14286C15.1566 5.62743 15.3385 6.03486 15.7036 6.36514C16.0686 6.69543 16.5183 6.85943 17.0526 6.85714Z" fill="#3C50E0"/>
</svg>
